# xmcd
#
# Track frame offsets:
#	150
#	13193
#	25308
#	37767
#	50255
#	62455
#	74200
#	86612
#	99214
#	111728
#	124792
#	138227
#	152819
#	167848
#	181868
#	196215
#	209009
#	222569
#	236574
#	249750
#	264854
#	278809
#	291927
#	303801
#	316329
#
# Disc length: 4414 seconds
#
# Revision: 0
# Processed by: cddbd v1.5.1PL2 Copyright (c) Steve Scherf et al.
# Submitted via: EasyCDDAExtractor 9.0.0.1
#
DISCID=67113c19
DTITLE=Various Artist - Applachian Stomp Down - Disc C
DYEAR=2006
DGENRE=Country
TTITLE0=Bela Lam and His Greene Country Singers - Poor Little Bennie 
TTITLE1=Bela Lam and His Greene Country Singers - Little Maud
TTITLE2=Bela Lam and His Greene Country Singers - See That My Grave Is Kept Clea
TTITLE2=n
TTITLE3=Dixie Reelers - Father, Dear Father Come Home
TTITLE4=Emry Arthur - Love Lifted Me
TTITLE5=Emry Arthur - Shining For The Master
TTITLE6=Emry Arthur - The Little Black Train Is Coming
TTITLE7=Emry Arthur - She's A Flower From The Fields Of Alabama
TTITLE8=Emry Arthur - I Am A Man Of Constant Sorrow
TTITLE9=Emry Arthur - Down In Tennesse Valley
TTITLE10=Emry Arthur - Goodbye, My Lover, Goodbye
TTITLE11=Emry Arthur - Wandering Gypsy Girl
TTITLE12=Emry Arthur - Going Around The World
TTITLE13=Emry Arthur - Nobody's Business
TTITLE14=Emry Arthur - I Shall Know By The Print Of The Nails In His Hand
TTITLE15=Emry Arthur - Where The Silvery Colorado Wends It's Way
TTITLE16=Emry Arthur - In The Heart Of The City That Has No Heart
TTITLE17=Emry Arthur - Ethan Lang
TTITLE18=Emry Arthur - The Wanderer
TTITLE19=Emry Arthur - I'm A Man Of Constant Sorrow
TTITLE20=Emry Arthur - The Broken Wedding
TTITLE21=Emry Arthur - The Bootlegger's Lullaby
TTITLE22=David Miller - My Little Indian Napanee
TTITLE23=David Miller - Give My Love To Nellie Jack
TTITLE24=David Miller - The Faded Coat Of Blue
EXTD=
EXTT0=
EXTT1=
EXTT2=
EXTT3=
EXTT4=
EXTT5=
EXTT6=
EXTT7=
EXTT8=
EXTT9=
EXTT10=
EXTT11=
EXTT12=
EXTT13=
EXTT14=
EXTT15=
EXTT16=
EXTT17=
EXTT18=
EXTT19=
EXTT20=
EXTT21=
EXTT22=
EXTT23=
EXTT24=
PLAYORDER=
